PathFileType	4	(X/Y/Z)	C:/Users/opensim2020/Desktop/walking_exp_matlab/subject01_walking10_straight_02.trc																																																																																																																															
DataRate	CameraRate	NumFrames	NumMarkers	Units	OrigDataRate	OrigDataStartFrame	OrigNumFrames																																																																																																																											
100	100	7	43	mm	100	2117	262																																																																																																																											
Frame#	Time	LFHD			RFHD			LBHD			RBHD			C7			T10			CLAV			STRN			RBAK			LSHO			LUPA			LELB			LFRM			LWRA			LWRB			LFIN			RSHO			RUPA			RELB			RFRM			RWRA			RWRB			RFIN			LASI			RASI			LPSI			RPSI			LTHI			LKNE			LTIB			LANK			LHEE			LTOE			RTHI			RKNE			RTIB			RANK			RHEE			RTOE			*39			*40			*41			*42		
		X1	Y1	Z1	X2	Y2	Z2	X3	Y3	Z3	X4	Y4	Z4	X5	Y5	Z5	X6	Y6	Z6	X7	Y7	Z7	X8	Y8	Z8	X9	Y9	Z9	X10	Y10	Z10	X11	Y11	Z11	X12	Y12	Z12	X13	Y13	Z13	X14	Y14	Z14	X15	Y15	Z15	X16	Y16	Z16	X17	Y17	Z17	X18	Y18	Z18	X19	Y19	Z19	X20	Y20	Z20	X21	Y21	Z21	X22	Y22	Z22	X23	Y23	Z23	X24	Y24	Z24	X25	Y25	Z25	X26	Y26	Z26	X27	Y27	Z27	X28	Y28	Z28	X29	Y29	Z29	X30	Y30	Z30	X31	Y31	Z31	X32	Y32	Z32	X33	Y33	Z33	X34	Y34	Z34	X35	Y35	Z35	X36	Y36	Z36	X37	Y37	Z37	X38	Y38	Z38	X39	Y39	Z39	X40	Y40	Z40	X41	Y41	Z41	X42	Y42	Z42	X43	Y43	Z43
																																																																																																																																		
99	0.98	-205.16786	1666.28699	992.76691	-167.42876	1671.51636	1100.92834	-320.07425	1632.64819	1027.35303	-283.90482	1638.02283	1142.47107	-361.57208	1431.22949	1063.19653	-387.82303	1135.97815	1068.91235	-218.63423	1364.97888	1059.1438	-169.1848	1212.7207	1055.37842	-411.73895	1233.92419	1140.42224	-285.69614	1392.51697	898.66681	-322.99164	1205.48767	819.58075	-340.19788	1056.98071	825.73181	-312.41284	947.44641	799.71332	-243.84904	825.26587	815.33228	-299.81259	825.63336	793.27997	-259.33057	750.57965	784.04181	-279.69543	1390.00806	1212.22852	-327.44174	1188.79248	1315.59753	-318.3522	1064.22107	1322.55762	-274.81165	951.75159	1354.83777	-177.44157	847.77734	1337.47546	-221.47762	842.85968	1375.97083	-174.20287	771.00879	1375.99561	-207.70332	934.89764	964.26471	-219.81413	927.58521	1181.19189	-397.32156	946.82208	1005.4281	-401.92801	949.526	1150.40125	-187.87392	610.11981	909.37659	-175.20601	477.51099	930.4624	-196.46809	288.44662	918.02051	-198.74384	71.52602	973.23254	-241.97658	41.46997	1026.34595	-52.04762	39.18876	969.46387	-314.81351	599.93481	1236.849	-336.42062	439.59448	1220.82886	-470.92889	322.26782	1223.93909	-595.12622	153.72238	1180.43176	-650.65253	149.55176	1126.37659	-506.48105	37.66115	1171.55908	-180.81087	1705.97009	1080.10583	-1973.10596	1023.34534	3101.96729	-2012.53381	1022.04712	3140.61255	NaN	NaN	NaN
100	0.99	-198.02596	1667.0293	990.867	-160.40399	1672.25244	1099.05261	-313.00839	1633.31433	1025.28503	-276.9234	1638.73914	1140.54639	-354.38708	1431.86475	1061.1582	-380.37152	1136.56921	1066.69824	-211.35281	1365.84644	1057.21448	-161.70924	1213.66455	1053.5365	-404.41696	1234.59265	1138.46472	-278.22961	1393.37	896.7489	-314.89679	1206.38452	817.31299	-331.42145	1057.58154	823.37354	-302.75668	948.3017	797.44006	-233.26387	826.65741	813.23553	-289.05722	826.66516	790.97076	-248.18193	752.02393	781.87616	-272.56064	1390.89124	1210.18103	-320.7438	1189.96387	1313.74585	-312.55624	1065.31445	1320.51318	-269.64471	952.44501	1352.82141	-172.89688	847.85211	1335.69275	-217.10556	843.33319	1374.20654	-170.41724	770.90295	1374.0542	-199.9406	935.63544	962.01947	-212.49814	928.61658	1178.79761	-389.66278	947.47015	1003.32776	-394.5191	950.10516	1148.32068	-183.42694	609.75543	907.79639	-170.88513	477.17245	929.01141	-194.2966	288.11713	917.81757	-198.28929	71.38749	973.33514	-241.94038	41.52866	1026.34583	-51.69942	38.94285	969.46234	-302.44128	599.58551	1236.0509	-322.323	439.50766	1221.40625	-459.15021	324.8107	1223.81091	-586.69641	159.02794	1180.27527	-641.55902	157.66599	1125.56787	-505.57538	37.71197	1170.74817	-173.77971	1706.71021	1078.23633	-1973.03625	1023.28058	3102.08545	-2012.39685	1021.90802	3140.67749	NaN	NaN	NaN
101	1	-190.98044	1667.65247	989.00049	-153.41475	1672.92236	1097.26489	-305.91827	1633.96252	1023.37482	-269.96817	1639.35071	1138.61621	-347.19275	1432.41833	1059.14063	-373.00397	1137.13049	1064.36401	-204.36458	1366.57495	1055.31824	-154.32654	1214.52148	1051.71313	-397.1474	1235.22571	1136.4021	-270.76031	1394.15063	894.90381	-306.80945	1207.27551	815.07666	-322.5304	1058.32104	820.98889	-292.93854	949.18622	795.12451	-222.39308	828.1947	811.17548	-278.13547	827.64972	788.39838	-236.49591	753.25378	779.75391	-265.42957	1391.6925	1208.25684	-313.93423	1191.02026	1311.95288	-306.57413	1066.3761	1318.49744	-264.46371	953.13885	1350.85767	-168.95309	847.73114	1334.12122	-212.67992	843.67792	1372.38416	-166.5811	770.76447	1372.07104	-192.43736	936.25781	959.97955	-205.39243	929.65472	1176.53259	-382.13516	948.05518	1001.08203	-387.30154	950.58844	1146.15674	-179.08755	609.27155	906.27417	-167.52773	476.6524	927.68005	-192.44269	287.77087	917.52057	-197.54945	71.311	973.52789	-241.90805	41.61003	1026.2738	-51.30093	38.62014	969.59961	-290.33859	599.63794	1235.82593	-308.01627	439.45975	1221.39087	-446.76996	327.33249	1223.5354	-577.63788	164.35173	1180.27625	-631.69537	165.55933	1125.0033	-504.1149	38.06386	1169.82397	-166.75458	1707.44385	1076.43481	-1973.18115	1023.41858	3102.04761	-2012.49194	1022.13678	3140.71143	NaN	NaN	NaN
102	1.01	-183.90764	1668.56201	986.90247	-146.46126	1673.54846	1095.59192	-298.8363	1634.48999	1021.51788	-263.02496	1639.91553	1136.77075	-340.06055	1432.94214	1057.19299	-365.78638	1137.69226	1062.03577	-197.05162	1367.12854	1053.59509	-147.03981	1215.18823	1050.00427	-389.94476	1235.77588	1134.30981	-263.28253	1394.91663	893.11517	-298.62491	1208.12415	812.91724	-313.60919	1059.00098	818.59558	-283.01962	949.99908	792.70111	-211.42653	829.68005	809.10834	-267.02585	828.61389	786.12665	-224.70711	754.81927	777.51099	-258.39728	1392.3783	1206.45178	-307.23355	1191.96069	1310.18396	-300.552	1067.25684	1316.45227	-259.40286	953.888	1348.99219	-164.4917	847.79303	1332.44275	-208.44362	844.0105	1370.77588	-162.68338	770.54395	1370.24304	-184.96515	936.59534	957.9762	-198.42535	930.5451	1174.47961	-374.7699	948.63971	998.86761	-380.43274	950.94421	1143.95349	-174.95831	608.89972	904.90771	-164.07149	476.21078	926.22803	-190.84726	287.46365	917.08997	-197.72144	71.22469	973.33081	-241.89394	41.67308	1026.24048	-50.90554	38.32242	969.66412	-277.97836	599.36707	1235.25928	-293.28876	439.42477	1221.20422	-434.31625	330.26953	1223.56567	-568.19623	169.81065	1180.37036	-621.82513	173.48164	1124.7522	-501.05994	39.80148	1169.53345	-159.78223	1708.03516	1074.80688	-1973.03906	1023.81	3101.89502	-2012.51343	1021.97906	3140.75757	NaN	NaN	NaN
103	1.02	-176.85176	1668.87866	985.49915	-139.56593	1674.10754	1093.96204	-291.78656	1634.90332	1019.74945	-256.11148	1640.36243	1135.06592	-332.95465	1433.38391	1055.26196	-358.64172	1138.18579	1059.67383	-189.90979	1367.6748	1051.84778	-139.80765	1215.77405	1048.34802	-382.93634	1236.33411	1132.17786	-255.74915	1395.55151	891.34528	-290.38034	1208.85864	810.74072	-304.67337	1059.495	816.05817	-273.02859	950.80847	790.27197	-200.36975	831.13483	807.00745	-255.83728	829.50494	783.89642	-212.67703	755.97565	775.4248	-251.4007	1392.96387	1204.63196	-300.77405	1192.72498	1308.35095	-294.66425	1068.02441	1314.55933	-254.25542	954.27594	1346.98962	-159.98418	847.61627	1330.67847	-203.97139	844.21838	1368.88586	-158.79422	770.29449	1368.32031	-177.76205	936.83386	956.20953	-191.67386	931.35046	1172.49219	-367.61603	949.18805	996.71088	-373.70163	951.03357	1141.72083	-170.64015	608.58264	903.61694	-160.78644	475.83118	924.91461	-189.4709	287.28464	916.51782	-197.25478	71.17373	973.35168	-241.79872	41.72828	1026.20801	-50.69077	38.00914	969.58618	-265.65244	599.18964	1234.67273	-278.32526	439.19055	1220.77478	-420.55032	332.2999	1222.92749	-558.14514	175.43349	1180.03491	-611.94775	181.42877	1124.81348	-497.68332	41.93783	1168.76367	-152.7897	1708.67163	1073.05884	-1973.10327	1023.59082	3101.90845	-2012.59131	1022.16089	3140.6582	NaN	NaN	NaN
104	1.03	-169.79469	1669.36365	983.96429	-132.59039	1674.55396	1092.4541	-284.79388	1635.3241	1018.08411	-249.21046	1640.73254	1133.35278	-325.88406	1433.85901	1053.34351	-351.70367	1138.64294	1057.35474	-182.78979	1368.11951	1050.27222	-132.77083	1216.17615	1046.85327	-376.04462	1236.81677	1130.07556	-248.19699	1396.10913	889.64868	-281.98895	1209.49646	808.54474	-295.76428	1059.97266	813.47083	-262.92804	951.49786	787.82715	-189.10529	832.62207	804.8714	-244.51349	830.52594	781.56659	-200.45233	757.29175	773.30902	-244.51726	1393.43848	1202.89685	-294.3338	1193.34509	1306.50232	-288.75366	1068.70581	1312.71216	-249.1837	954.79028	1345.20972	-155.46194	847.60632	1329.0387	-199.61145	844.31964	1367.22937	-154.84839	770.01703	1366.46448	-170.68994	936.93048	954.47717	-185.00432	932.07355	1170.81128	-360.54718	949.47266	994.47754	-367.10587	951.01477	1139.57385	-166.18948	608.20313	902.2843	-157.54909	475.38327	923.57782	-188.30696	287.20557	915.90454	-197.23364	71.1534	973.29938	-241.77669	41.79647	1026.17151	-50.47392	37.78738	969.49451	-253.30127	598.86481	1233.99829	-263.2673	439.07159	1219.9314	-406.79861	334.75394	1222.68762	-547.92145	181.35628	1179.47815	-601.64825	189.42525	1124.71716	-492.37732	46.80293	1169.13745	-145.9265	1709.13	1071.52722	-1973.0708	1023.48669	3101.84961	-2012.49231	1022.08527	3140.76831	NaN	NaN	NaN
105	1.04	-162.7692	1669.77051	982.46753	-125.69193	1674.99976	1090.98816	-277.74222	1635.67163	1016.39563	-242.3176	1641.04297	1131.71545	-318.85568	1434.2876	1051.51282	-344.7991	1139.05249	1055.10217	-175.66281	1368.4812	1048.85852	-125.75704	1216.45715	1045.43591	-369.13641	1237.21643	1127.96204	-240.57576	1396.55664	888.01361	-273.59933	1210.06616	806.41803	-286.74347	1060.21094	810.9549	-252.77284	952.16754	785.35413	-177.72345	834.02124	802.7608	-232.96478	831.34607	779.00781	-188.03304	758.58966	771.16095	-237.77515	1393.87366	1201.22974	-287.88687	1193.77893	1304.59192	-282.90564	1069.16895	1310.83215	-244.05562	955.02075	1343.29309	-150.90169	847.36511	1327.3833	-195.1214	844.31702	1365.42566	-150.88425	769.66516	1364.58948	-163.78856	936.87903	953.03979	-178.33661	932.79791	1169.42102	-353.69785	949.6554	992.42078	-360.6282	950.7984	1137.62378	-161.77948	607.89172	901.08917	-154.37671	475.00186	922.37781	-187.12038	286.98431	915.32635	-196.91078	71.06879	973.26581	-241.69144	41.84317	1026.16626	-50.29951	37.60693	969.41357	-240.88177	598.54205	1233.15723	-248.04376	438.91299	1219.21533	-393.28958	337.38416	1222.63855	-537.16718	187.45555	1178.53833	-590.8573	197.54117	1124.04138	-487.65152	49.59331	1167.81506	-139.02995	1709.51208	1070.10522	-1973.02576	1023.81323	3102.01196	-2012.42822	1022.00159	3140.81445	NaN	NaN	NaN
